<?xml version="1.0" encoding="UTF-8"?>
<svg width="60px" height="60px" viewBox="0 0 60 60" version="1.1" xmlns="http://www.w3.org/2000/svg" xmlns:xlink="http://www.w3.org/1999/xlink">
    <title>Logo</title>
    <g id="Logo" stroke="none" stroke-width="1" fill="none" fill-rule="evenodd">
        <path d="M14.833889,27 L2.06019436,27 C2.02047216,27.2923579 2.00049069,27.5858916 2,27.8798171 C1.99880551,28.5960157 2.11556469,29.309079 2.34667563,30 L15,30 C14.8615742,29.3030046 14.7924816,28.5977792 14.7929631,27.8915741 C14.7977779,27.5937296 14.8098149,27.295885 14.833889,27 L14.833889,27 Z" id="Path" fill="#929292"></path>
        <path d="M3.67218019,22 C2.93696991,22.9097015 2.37218019,23.923274 2,25 L13.9980644,25 C14.2073729,23.9689772 14.5434102,22.9628835 15,22 L3.67218019,22 Z" id="Path" fill="#929292"></path>
        <path d="M8.01006404,18 C6.93668801,18.6038797 5.93017383,19.2727449 5,20 L17.0556267,20 C17.6174199,19.2876819 18.2686185,18.6178468 19,18 L8.01006404,18 Z" id="Path" fill="#929292"></path>
        <path d="M13.8717125,14 C12.8719133,14.617284 11.917888,15.3024691 11,16 L20.4776149,16 C21.2675768,15.2333333 22.1119855,14.5635802 23,14 L13.8717125,14 Z" id="Path" fill="#929292"></path>
        <path d="M29.5208384,10.0000348 C26.3013039,9.99582436 23.0970509,10.6687951 20,12 L39,12 C35.9170729,10.6677425 32.7267122,9.99442088 29.5208384,10.0000348 L29.5208384,10.0000348 Z" id="Path" fill="#929292"></path>
        <path d="M23.5727314,42 L15,42 C24.4794802,46 35.5205198,46 45,42 L36.3999088,42 C32.3337893,43.6605207 27.6386229,43.6605207 23.5727314,42 L23.5727314,42 Z" id="Path" fill="#929292"></path>
        <path d="M17.1814516,37 L7,37 C8.23387097,37.9958205 9.56294803,38.892341 10.9717742,39.6788861 C11.7849462,40.140138 12.6384409,40.5810464 13.5255376,41 L22,41 C20.0855735,40.0023667 18.4399642,38.6363362 17.1814516,37 L17.1814516,37 Z" id="Path" fill="#929292"></path>
        <path d="M3,32 C3.59202401,33.1083744 4.41149228,34.1232759 5.42161235,35 L16,35 C15.3540137,34.0589901 14.8650086,33.0498153 14.5461407,32 L3,32 Z" id="Path" fill="#929292"></path>
        <path d="M38,41 L46.480597,41 C47.3761194,40.583262 48.2179104,40.140138 49.0303731,39.6806989 C50.4356716,38.889924 51.7635075,37.9927992 53,37 L42.8134328,37 C41.5583582,38.6379475 39.914403,40.0041795 38,41 L38,41 Z" id="Path" fill="#929292"></path>
        <path d="M54.5896996,35 C55.5962232,34.1227217 56.4117082,33.1076355 57,32 L45.4573391,32 C45.1355193,33.0494458 44.6452017,34.058436 44,35 L54.5896996,35 Z" id="Path" fill="#929292"></path>
        <path d="M45,30 L57.6508609,30 C57.882978,29.309079 58.0002404,28.5960157 58,27.8798171 C57.9997588,27.5858916 57.9788105,27.292162 57.9373954,27 L45.1733654,27 C45.1902204,27.295885 45.2118911,27.5878511 45.2118911,27.8915741 C45.2169476,28.5981711 45.1459159,29.3035924 45,30 L45,30 Z" id="Path" fill="#929292"></path>
        <path d="M57,25 C56.6275911,23.9216609 56.058455,22.9076817 55.3161534,22 L44,22 C44.4623086,22.9612457 44.800176,23.9681661 45.0065106,25 L57,25 Z" id="Path" fill="#929292"></path>
        <path d="M54,20 C53.1193625,19.2754607 52.171808,18.6069835 51.1659095,18 L41,18 C41.6827441,18.6159069 42.2883312,19.285936 42.8074739,20 L54,20 Z" id="Path" fill="#929292"></path>
        <path d="M48,16 C47.168553,15.3024691 46.2970897,14.6234568 45.3678254,14 L37,14 C37.8194422,14.567284 38.5999798,15.2367284 39.3320534,16 L48,16 Z" id="Path" fill="#929292"></path>
    </g>
</svg>